<svg xmlns="http://www.w3.org/2000/svg" viewBox="0 0 511.83 511.8"><defs><style>.cls-1{fill:#9d0522;}.cls-2{fill:#ef8e28;}.cls-3{fill:#ef8d26;}.cls-4{fill:#fbac43;}.cls-5{fill:#aa6a5c;}.cls-6{fill:#d82e46;}.cls-7{fill:#d92e46;}.cls-8{fill:#f4f6f8;}.cls-9{fill:#fcd789;}.cls-10{fill:#fbd589;}.cls-11{fill:#fbd689;}.cls-12{fill:#faac44;}</style></defs><g id="Layer_2" data-name="Layer 2"><g id="Layer_1-2" data-name="Layer 1"><g id="Layer_2-2" data-name="Layer 2"><g id="Layer_1-2-2" data-name="Layer 1-2"><path class="cls-1" d="M0,369.91v-191c7.36,36.14,32.52,57.63,62.21,75.27A233,233,0,0,0,108.13,275c91.37,30.15,183.51,31.26,276.06,6.21,31.06-8.41,60.38-21.1,86.18-40.83,14.57-11.15,27-24.2,35-41.06,3.08-6.53,4.41-13.56,6.45-20.39v191c-2.68.5-2.35,3-2.91,4.72a86.14,86.14,0,0,1-14,26.28c-14.74,18.92-33.83,32.39-54.92,43.17-38.08,19.51-78.88,29.83-121.16,35.16-56.71,7.13-113,5-168.77-7.49-38.81-8.73-75.78-22.09-108-46.33-18.29-13.77-33.31-30.17-39.62-53C2.13,371.15,1.9,369.7,0,369.91Zm142.09,6.49c0,21-.09,42,0,62.94.06,9.92,7.09,16.49,16.08,15.46,7.35-.85,12.59-7.35,12.6-16.11q.09-61.93,0-123.87a20.55,20.55,0,0,0-.54-4.94,14.17,14.17,0,0,0-16.91-10.77l-.24.05c-6.69,1.47-11,7.2-11,15.31-.05,20.6,0,41.25,0,61.89ZM14.18,319.81h0v35c0,9.65-.23,19.31.12,28.95.41,11,11,17.38,20.63,12.57,6-3,8-8.43,8-14.91q-.07-41.94,0-83.88V257.6c0-6.54-2.53-11.75-8.77-14.4-10.11-4.29-19.85,2.56-19.94,14.21C14.07,278.21,14.18,299,14.18,319.81Zm454.72.1v8c0,18.14-.12,36.27.06,54.41.12,12,10.76,19,20.9,13.91,6.13-3.07,7.84-8.53,7.83-15q-.09-61.39,0-122.79a27.93,27.93,0,0,0-.26-4.48,14.13,14.13,0,0,0-20.56-10.44c-5.74,3-7.94,8.18-7.93,14.5Q468.9,289,468.9,319.91ZM341,376.84c0-21.15.06-42.3,0-63.44,0-8.9-5.38-14.42-13.65-14.54-8.55-.13-14.4,6-14.41,15.58q-.09,62.19,0,124.38c0,9.37,6,16,14.16,16S341,448.28,341,438.77Q341,407.81,341,376.84Z"/><path class="cls-2" d="M0,369.91c1.88-.17,2.1,1.28,2.45,2.55,6.31,22.83,21.33,39.23,39.62,53,32.17,24.24,69.14,37.6,108,46.33,55.77,12.53,112.06,14.62,168.77,7.49,42.23-5.37,83-15.69,121.14-35.18,21.09-10.78,40.18-24.25,54.89-43.19a86,86,0,0,0,14-26.34c.56-1.72.23-4.22,2.91-4.72v25c-1,.29-1.09,1.13-1.26,1.94-3.81,17.75-13.46,32.07-26.12,44.62-16.32,16.19-35.7,27.77-56.49,37.13-40.55,18.26-83.4,27.3-127.47,31.37-5.19.47-10.54-.08-15.56,1.89h-59c-1.2-1.7-3-1-4.58-1.09-30.31-2.22-60.25-6.69-89.54-14.95-31.94-9-62.53-21.12-89.25-41.32-19.82-15-35.89-32.84-41.41-58.13-.12-.54-.73-1-1.12-1.46Z"/><path class="cls-3" d="M511.8,178.91c-2,6.83-3.37,13.86-6.45,20.39-8,16.86-20.41,29.91-35,41.06-25.8,19.73-55.12,32.42-86.18,40.83-92.55,25.05-184.69,23.94-276.06-6.21a233,233,0,0,1-45.89-20.8C32.55,236.57,7.39,215.08,0,178.91v-28a17.17,17.17,0,0,1,1,2.79c3.43,17.63,12.57,32.06,25,44.65,17.71,18,39.09,30.35,62,40.31,46.92,20.42,96.51,28.75,147.19,31a476.84,476.84,0,0,0,105.9-6.87c39.08-7,76.76-18.18,111.16-38.67,18-10.75,34.18-23.61,46.24-41.16,6.74-9.8,10.37-20.75,13.31-32.06Z"/><path class="cls-4" d="M511.8,150.91c-2.94,11.31-6.57,22.26-13.31,32.06-12.06,17.55-28.19,30.41-46.24,41.16-34.4,20.49-72.08,31.64-111.16,38.67a476.84,476.84,0,0,1-105.9,6.87c-50.68-2.26-100.27-10.59-147.19-31-22.89-10-44.27-22.34-62-40.31-12.41-12.59-21.55-27-25-44.65a17.17,17.17,0,0,0-1-2.79v-19a5.28,5.28,0,0,0,1-1.59c4.25-21.07,16.34-37.25,32.06-51,25-22,54.59-35.41,86-45.18C179.69,15.26,241.72,10.67,304.7,16.57c16.39,1.53,32.73,3.62,48.76,7.61A79.56,79.56,0,0,1,339.9,35.09a536.17,536.17,0,0,0-101.8-6.4A484.89,484.89,0,0,0,162.39,37C125.39,44.29,89.81,55.35,58,76.44c-16.6,11-30.91,24.22-39.24,42.83-3.87,8.65-6,17.61-4,27.15.2,11.83,5.13,21.94,11.69,31.35C36,191.4,48.6,201.68,62.57,210.38,84.39,224,108.06,233.29,132.76,240c65.11,17.68,131.09,20.12,197.63,10.36,36.76-5.44,72.34-15.09,105.51-32.34,17.58-9.13,33.68-20.26,46.23-35.9,8.39-10.46,14.14-22,14.93-35.69a35,35,0,0,0,0-14.27c-2-12.13-8.35-22.16-15.57-31.75,3.35-2.62,7.07-4.84,9.4-8.58a81.32,81.32,0,0,1,17.71,30.3c1.16,3.57,2.11,7.22,3.15,10.83Z"/><path class="cls-5" d="M353.46,24.18c7.58-4.75,14.07-10.91,21.16-16.29,3.66-2.77,7.17-5.72,11.24-7.89h8c7.3,4.22,11.43,11.32,16,17.92,2.94,4.21,3.15,8.92,1.05,13.74-1.24,2.87-4,4.36-5.63,6.89-5.08,2.24-9.33,5.73-13.57,9.22a85.66,85.66,0,0,0-14.15,10.14,7,7,0,0,0-1.83.65q-76.58,54.29-153.17,108.55a13.27,13.27,0,0,0-5.59,7.73c-6.2,21.7-30.46,39-53,38.14-15.07-.58-24-12-21.06-26.78,4.47-22.33,30.85-42.54,53.76-41.08,2.91.18,5.4.09,7.9-1.91q59.88-47.84,119.88-95.52l15.45-12.6A79.56,79.56,0,0,0,353.46,24.18Z"/><path class="cls-6" d="M142.12,376.36c0-20.64-.06-41.29,0-61.93,0-8.11,4.31-13.84,11-15.31a14.18,14.18,0,0,1,17.1,10.48,2,2,0,0,0,.05.24,20.55,20.55,0,0,1,.54,4.94V438.65c0,8.76-5.25,15.26-12.6,16.11-9,1-16-5.54-16.08-15.46C142,418.32,142.12,397.34,142.12,376.36Z"/><path class="cls-6" d="M14.18,319.81c0-20.8-.11-41.6,0-62.4.09-11.65,9.83-18.55,19.91-14.26,6.24,2.65,8.75,7.86,8.77,14.4V381.37c0,6.48-2,11.89-8,14.91-9.6,4.81-20.22-1.58-20.63-12.57-.35-9.64-.11-19.3-.12-28.95v-35Z"/><path class="cls-6" d="M468.9,319.91V258c0-6.32,2.19-11.5,7.93-14.5A14.12,14.12,0,0,1,497.39,254a27.93,27.93,0,0,1,.26,4.48V381.22c0,6.46-1.7,11.92-7.83,15-10.14,5.08-20.78-1.9-20.9-13.91-.18-18.14-.06-36.27-.06-54.41Z"/><path class="cls-7" d="M341,376.84v61.93c0,9.51-5.73,16-13.94,16.05s-14.15-6.63-14.16-16q-.06-62.19,0-124.38c0-9.55,5.86-15.71,14.41-15.58,8.27.12,13.62,5.64,13.65,14.54C341,334.54,341,355.69,341,376.84Z"/><path class="cls-8" d="M324.42,47.68q-60,47.73-119.88,95.52c-2.5,2-5,2.09-7.9,1.91-22.91-1.46-49.29,18.8-53.74,41.08-3,14.81,6,26.2,21.06,26.78,22.57.89,46.83-16.44,53-38.14a13.27,13.27,0,0,1,5.59-7.73Q299.2,112.91,375.73,58.55a7,7,0,0,1,1.83-.65c7.86,2.57,15.81,4.92,23.57,7.78,11,4.06,22.06,8.1,32.18,14.22-1,.67-1.87,1.39-2.86,2Q349.9,132.54,269.39,183.21c-2.91,1.84-5.78,2-9,2-22.77.12-40.1,10.22-51.33,29.79-8.78,15.31-1.16,31.66,15.28,34.64,23,4.16,51.66-13.17,58.45-35.63a11.23,11.23,0,0,1,5.9-7.28q88.94-49.17,177.79-98.49c1.87-1,3.6-2.46,5.86-2.64.53.64,1,1.32,1.6,1.92,10,10.45,18.4,21.84,21.78,36.27a12.3,12.3,0,0,0,1.34,2.63c-.79,13.65-6.54,25.23-14.93,35.69-12.53,15.64-28.63,26.8-46.23,35.9-33.19,17.25-68.77,26.94-105.56,32.34-66.54,9.76-132.52,7.32-197.63-10.36-24.7-6.7-48.37-16-70.19-29.61-14-8.7-26.58-19-36.08-32.61-6.56-9.41-11.49-19.52-11.69-31.35a10.49,10.49,0,0,0,1.15-2.17c5.38-21.19,19.18-36.19,36.19-48.63,29.17-21.32,62.53-33.06,97.23-41.3C191.9,44.21,235.2,41.58,278.77,43.24,294,43.83,309.35,44.67,324.42,47.68Z"/><path class="cls-5" d="M472.36,105.6c-2.26.18-4,1.6-5.86,2.64L288.71,206.73a11.23,11.23,0,0,0-5.9,7.28c-6.79,22.46-35.46,39.79-58.45,35.63-16.44-3-24.06-19.33-15.28-34.64,11.23-19.57,28.56-29.67,51.33-29.79,3.2,0,6.07-.16,9-2q80.49-50.75,161-101.3c1-.62,1.91-1.34,2.85-2,4.42-2.62,9.1-4.84,12.82-8.51,4.53-1.6,8.35-4.38,12-7.36a3.9,3.9,0,0,0,.93-.36c13.13-9.21,21.46-3,27.19,8.21,3.27,6.37,7.73,12.2,4.67,19.94-2.33,3.74-6.05,6-9.4,8.58C478.18,101.61,474.9,103,472.36,105.6Z"/><path class="cls-9" d="M324.42,47.68c-15.07-3-30.38-3.85-45.65-4.44-43.57-1.66-86.87,1-129.43,11.08-34.7,8.24-68.06,20-97.23,41.3-17,12.44-30.81,27.44-36.21,48.63a10.49,10.49,0,0,1-1.15,2.17c-2-9.54.17-18.5,4-27.15C27.08,100.66,41.39,87.46,58,76.44,89.82,55.35,125.43,44.29,162.4,37a484.89,484.89,0,0,1,75.71-8.33,536.06,536.06,0,0,1,101.79,6.4Z"/><path class="cls-10" d="M472.36,105.6c2.58-2.59,5.82-4,9.18-5.2,7.22,9.59,13.54,19.62,15.57,31.75a35,35,0,0,1,0,14.27,12.3,12.3,0,0,1-1.34-2.63C492.39,129.36,484,118,474,107.52,473.38,106.91,472.9,106.24,472.36,105.6Z"/><path class="cls-11" d="M446.12,71.39c-3.72,3.67-8.4,5.89-12.82,8.51-10.11-6.12-21.16-10.16-32.17-14.22-7.76-2.86-15.71-5.21-23.57-7.78a85.26,85.26,0,0,1,14.18-10.13A250.76,250.76,0,0,1,446.12,71.39Z"/><path class="cls-12" d="M446.12,71.39a250.76,250.76,0,0,0-54.38-23.62c4.24-3.49,8.49-7,13.57-9.22C424,44.83,441.77,53,458.15,64,454.47,67,450.65,69.79,446.12,71.39Z"/></g></g></g></g></svg>