<svg xmlns="http://www.w3.org/2000/svg" viewBox="0 0 512 512"><defs><style>.cls-1{fill:#231f20;}.cls-2{fill:#e9e9e9;}</style></defs><g id="Layer_2" data-name="Layer 2"><g id="Layer_1-2" data-name="Layer 1"><path class="cls-1" d="M0,11V353H178.86v33.38c17-3.87,43.18-8.48,72.57-12.61,34.84-4.89,65.35-7.84,81.71-8.17V353H512V11Z"/><path class="cls-1" d="M178.86,465.36c17-3.87,43.18-8.48,72.57-12.61,34.84-4.89,65.35-7.85,81.71-8.18V412.64c-16.8,4-44.74,9.06-76.5,13.52-32.21,4.52-60.73,7.39-77.78,8.06Z"/><path class="cls-1" d="M333.14,372.17c-16.14,4.19-46.05,9.68-80.43,14.51-29.85,4.19-56.53,7-73.85,7.88v32.23c16.8-4,44.74-9.06,76.5-13.52,32.21-4.52,60.73-7.4,77.78-8.07Z"/><path class="cls-1" d="M333.14,474.05V451.14c-16.14,4.19-46.05,9.68-80.43,14.5-29.85,4.2-56.53,7-73.85,7.88v.53c0,19.41,14,6.81,28.49,31.34,2.43,4.13,6.41,6.61,10.65,6.61l3.47-.35-1.05.35h76.65c3.91,0,7.58-2.48,9.82-6.61,13.36-24.53,26.25-11.93,26.25-31.34h0Z"/><rect class="cls-1" width="512" height="342.04"/><rect class="cls-2" x="66.78" y="69.69" width="378.44" height="202.67"/></g></g></svg>