<svg xmlns="http://www.w3.org/2000/svg" viewBox="0 0 574.93 512"><defs><style>.cls-1{fill:#61dafb;}</style></defs><g id="Layer_2" data-name="Layer 2"><g id="Layer_1-2" data-name="Layer 1"><path class="cls-1" d="M574.93,256.06c0-38.09-47.7-74.18-120.82-96.57C471,85,463.48,25.66,430.44,6.68,422.82,2.23,413.91.12,404.19.12V26.25a27.18,27.18,0,0,1,13.36,3.05C433.48,38.44,440.4,73.24,435,118c-1.29,11-3.4,22.62-6,34.45a568.4,568.4,0,0,0-74.42-12.77A570,570,0,0,0,305.86,81.1c38.21-35.51,74.07-55,98.44-55V0c-32.22,0-74.41,23-117.07,62.81C244.57,23.2,202.39.47,170.16.47V26.6c24.26,0,60.23,19.34,98.44,54.61a552.69,552.69,0,0,0-48.4,58.48,547.05,547.05,0,0,0-74.53,12.89c-2.7-11.72-4.69-23.09-6.1-34-5.51-44.77,1.29-79.58,17.11-88.83,3.52-2.11,8.09-3.05,13.48-3.05V.59c-9.85,0-18.75,2.11-26.49,6.56-32.93,19-40.31,78.16-23.32,152.46C47.46,182.11,0,218.09,0,256.06s47.7,74.18,120.82,96.56c-16.87,74.53-9.37,133.83,23.67,152.82,7.62,4.45,16.53,6.56,26.37,6.56,32.23,0,74.42-23,117.07-62.81,42.66,39.61,84.85,62.34,117.08,62.34,9.84,0,18.75-2.11,26.48-6.56,32.93-19,40.31-78.17,23.32-152.46,72.66-22.39,120.12-58.48,120.12-96.45ZM422.35,177.89C418,193,412.62,208.6,406.53,224.18c-4.81-9.37-9.84-18.75-15.35-28.12S380,177.54,374.3,168.64c16.64,2.46,32.7,5.5,48.05,9.25ZM368.68,302.7c-9.14,15.82-18.52,30.82-28.25,44.77-17.46,1.52-35.15,2.34-53,2.34s-35.4-.82-52.74-2.23c-9.73-13.94-19.22-28.83-28.36-44.53-8.91-15.35-17-30.94-24.38-46.64,7.27-15.7,15.47-31.41,24.26-46.76,9.14-15.82,18.52-30.82,28.25-44.76,17.46-1.53,35.15-2.35,53-2.35s35.39.82,52.73,2.23c9.73,13.94,19.22,28.83,28.36,44.53,8.91,15.35,17,30.94,24.38,46.64-7.39,15.7-15.47,31.41-24.26,46.76Zm37.85-15.23c6.33,15.7,11.72,31.4,16.17,46.64-15.35,3.75-31.52,6.91-48.28,9.37,5.74-9,11.48-18.28,16.87-27.77s10.43-18.87,15.24-28.24Zm-118.83,125A482.71,482.71,0,0,1,255.12,375c10.55.46,21.33.82,32.23.82s21.91-.24,32.58-.82A458.44,458.44,0,0,1,287.7,412.51Zm-87.19-69c-16.64-2.46-32.7-5.51-48-9.26,4.34-15.11,9.73-30.7,15.82-46.29,4.81,9.38,9.85,18.75,15.36,28.13S194.77,334.58,200.51,343.48Zm86.6-243.87a482.71,482.71,0,0,1,32.58,37.5c-10.54-.47-21.33-.82-32.22-.82s-21.92.24-32.58.82A456.44,456.44,0,0,1,287.11,99.61Zm-86.72,69c-5.74,9-11.48,18.28-16.87,27.77s-10.43,18.75-15.24,28.12c-6.32-15.7-11.72-31.4-16.17-46.64,15.35-3.63,31.53-6.79,48.28-9.25Zm-106,146.72C52.85,297.66,26,274.46,26,256.06s26.83-41.72,68.32-59.3c10.08-4.34,21.09-8.2,32.46-11.84a562.51,562.51,0,0,0,26.37,71.37,553.66,553.66,0,0,0-26,71c-11.6-3.63-22.62-7.62-32.81-11.95Zm63,167.46c-15.94-9.14-22.86-43.95-17.47-88.71,1.29-11,3.4-22.62,6-34.46a566.69,566.69,0,0,0,74.42,12.78A570,570,0,0,0,269.07,431c-38.21,35.51-74.07,55-98.44,55a27.86,27.86,0,0,1-13.24-3.16Zm278-89.3c5.51,44.77-1.29,79.57-17.11,88.83-3.52,2.11-8.09,3-13.48,3-24.26,0-60.23-19.34-98.44-54.61a552.69,552.69,0,0,0,48.4-58.48,546.78,546.78,0,0,0,74.53-12.89A327.24,327.24,0,0,1,435.36,393.52Zm45.12-78.16c-10.08,4.33-21.1,8.2-32.47,11.83a563,563,0,0,0-26.36-71.37,554.39,554.39,0,0,0,26-71c11.6,3.63,22.62,7.61,32.93,11.95,41.49,17.7,68.32,40.9,68.32,59.3s-26.95,41.72-68.43,59.3Z"/><circle class="cls-1" cx="287.35" cy="256.06" r="53.56"/></g></g></svg>