<svg xmlns="http://www.w3.org/2000/svg" viewBox="0 0 515 514.9"><defs><style>.cls-1{fill:#231f20;}.cls-1,.cls-2{stroke:#e9e9e9;stroke-miterlimit:10;stroke-width:3px;}.cls-2{fill:#e9e9e9;}</style></defs><g id="Layer_2" data-name="Layer 2"><g id="Layer_1-2" data-name="Layer 1"><path class="cls-1" d="M1.5,13.22V353.78a.72.72,0,0,0,.72.72H179.68a.72.72,0,0,1,.72.72V387a.71.71,0,0,0,.87.71c17-3.86,42.83-8.37,71.73-12.4,34.31-4.83,64.54-7.72,81-8.18a.71.71,0,0,0,.69-.72V355.22a.72.72,0,0,1,.72-.72H512.78a.72.72,0,0,0,.72-.72V13.22a.72.72,0,0,0-.72-.72H2.22A.72.72,0,0,0,1.5,13.22Z"/><path class="cls-1" d="M180.4,466a.71.71,0,0,0,.87.71c17-3.86,42.83-8.37,71.73-12.4,34.31-4.83,64.54-7.81,81-8.19a.71.71,0,0,0,.7-.72V415.11a.72.72,0,0,0-.88-.7c-16.89,4-44.37,9-75.62,13.29-31.77,4.44-59.95,7.32-77.12,8.07a.72.72,0,0,0-.68.72Z"/><path class="cls-1" d="M334.6,373.7c-16.1,4.2-46,9.7-80.4,14.5-29.52,4.15-55.82,6.93-73.22,7.86a.72.72,0,0,0-.68.72v30.61a.72.72,0,0,0,.88.7c16.89-4,44.37-9,75.62-13.29,31.77-4.44,59.95-7.32,77.12-8.07a.72.72,0,0,0,.68-.72V373.7Z"/><path class="cls-1" d="M333.7,452.83C317.41,457,288,462.39,254.2,467.1c-29.9,4.2-56.5,7-73.9,7.9v.5c0,19.4,14,6.8,28.5,31.3a12.56,12.56,0,0,0,10.55,6.6h79c3.9,0,7.6-2.5,9.8-6.6,13.5-24.4,26.4-11.8,26.4-31.3v-22A.72.72,0,0,0,333.7,452.83Z"/><rect class="cls-1" x="1.5" y="1.5" width="512" height="342" rx="0.72"/><rect class="cls-2" x="68.3" y="71.2" width="378.4" height="202.7" rx="0.72"/></g></g></svg>