<svg xmlns="http://www.w3.org/2000/svg" viewBox="0 0 517 516.9"><defs><style>.cls-1{fill:#231f20;}.cls-1,.cls-2{stroke:#e9e9e9;stroke-miterlimit:10;stroke-width:5px;}.cls-2{fill:#e9e9e9;}</style></defs><g id="Layer_2" data-name="Layer 2"><g id="Layer_1-2" data-name="Layer 1"><g id="Layer_2-2" data-name="Layer 2"><g id="Layer_1-2-2" data-name="Layer 1-2"><path class="cls-1" d="M2.5,13.5v342H181.4v33.4c17-3.9,43.2-8.5,72.6-12.6,34.8-4.9,65.4-7.8,81.7-8.2V355.5H514.5V13.5Z"/><path class="cls-1" d="M181.4,467.9c17-3.9,43.2-8.5,72.6-12.6,34.8-4.9,65.4-7.9,81.7-8.2V415.2c-16.8,4-44.7,9.1-76.5,13.5-32.2,4.5-60.7,7.4-77.8,8.1Z"/><path class="cls-1" d="M335.6,374.7c-16.1,4.2-46,9.7-80.4,14.5-29.9,4.2-56.5,7-73.9,7.9v32.2c16.8-4,44.7-9.1,76.5-13.5,32.2-4.5,60.7-7.4,77.8-8.1v-33Z"/><path class="cls-1" d="M335.6,476.5V453.6c-16.1,4.2-46,9.7-80.4,14.5-29.9,4.2-56.5,7-73.9,7.9v.5c0,19.4,14,6.8,28.5,31.3a12.54,12.54,0,0,0,10.6,6.6l3.5-.4-1.1.4h76.6c3.9,0,7.6-2.5,9.8-6.6,13.5-24.4,26.4-11.8,26.4-31.3Z"/><rect class="cls-1" x="2.5" y="2.5" width="512" height="342"/><rect class="cls-2" x="69.3" y="72.2" width="378.4" height="202.7"/></g></g></g></g></svg>